<?xml version="1.0" encoding="UTF-8"?>
<svg width="17" height="34" xmlns="http://www.w3.org/2000/svg">
 <!-- Created with SVG-edit - http://svg-edit.googlecode.com/ -->

 <g>
  <title>Layer 1</title>
  <g id="svg_98">
   <g id="svg_30">
    <g transform="matrix(0.309112, 0, 0, 0.210255, 56.2268, 39.8915)" id="svg_20">
     <path id="svg_21" d="m-126.14209,-155.15094c-0.005997,-0.08902 -0.022995,-0.175018 -0.052002,-0.259003c-0.010986,-0.032013 -0.018982,-0.062012 -0.03299,-0.093018c-0.049011,-0.105988 -0.110001,-0.207001 -0.195999,-0.292999l-26.988998,-26.988983c-0.085999,-0.085999 -0.186005,-0.147003 -0.292007,-0.195007c-0.030991,-0.014984 -0.063004,-0.02301 -0.095993,-0.033997c-0.083008,-0.027985 -0.166,-0.045013 -0.253006,-0.049988c-0.022995,-0.002014 -0.042999,-0.013 -0.065002,-0.013l-27.561996,0c-0.552002,0 -1,0.447998 -1,1l0,71.250023c0,0.552979 0.447998,1 1,1l54.550003,0c0.552994,0 1,-0.447021 1,-1l0,-44.262047c0,-0.022003 -0.011002,-0.040985 -0.012009,-0.061981zm-54.537994,43.323021l0,-69.250023l25.561005,0l0,25.988983c0,0.552002 0.447998,1 1,1l25.988998,0l0,42.26104l-52.550003,0z"/>
    </g>
    <g transform="matrix(0.309112, 0, 0, 0.210255, 56.2268, 39.8915)" id="svg_22">
     <rect id="svg_23" height="2" width="36.5" y="-147.452929" x="-172.655087"/>
    </g>
    <g transform="matrix(0.309112, 0, 0, 0.210255, 56.2268, 39.8915)" id="svg_24">
     <rect id="svg_25" height="2" width="36.5" y="-139.452929" x="-172.655087"/>
    </g>
    <g transform="matrix(0.309112, 0, 0, 0.210255, 56.2268, 39.8915)" id="svg_26">
     <rect id="svg_27" height="2" width="36.5" y="-131.452929" x="-172.655087"/>
    </g>
    <g transform="matrix(0.309112, 0, 0, 0.210255, 56.2268, 39.8915)" id="svg_28">
     <rect id="svg_29" height="2" width="36.5" y="-123.452929" x="-172.655087"/>
    </g>
   </g>
   <g id="svg_53">
    <g id="svg_54" transform="matrix(0.296826, 0, 0, 0.207217, 58.0293, 35.8761)">
     <path stroke="#ff0000" id="svg_55" d="m-139.776337,-61.127705c-0.005997,-0.08902 -0.022995,-0.175018 -0.052002,-0.259003c-0.010986,-0.032013 -0.018982,-0.062012 -0.03299,-0.093018c-0.049011,-0.105988 -0.110001,-0.207001 -0.195999,-0.292999l-26.988998,-26.988987c-0.085999,-0.085999 -0.186005,-0.147003 -0.292007,-0.195007c-0.030991,-0.014984 -0.063004,-0.02301 -0.095993,-0.033997c-0.083008,-0.027985 -0.166,-0.045013 -0.253006,-0.049988c-0.022995,-0.002014 -0.042999,-0.013 -0.065002,-0.013l-27.561996,0c-0.552002,0 -1,0.447998 -1,1l0,71.250019c0,0.552979 0.447998,0.999969 1,0.999969l54.550003,0c0.552994,0 1,-0.44699 1,-0.999969l0,-44.262039c0,-0.022003 -0.011002,-0.040985 -0.012009,-0.061981zm-54.537994,43.323013l0,-69.250019l25.561005,0l0,25.988987c0,0.552002 0.447998,1 1,1l25.988998,0l0,42.261032l-52.550003,0z"/>
    </g>
    <g id="svg_56" transform="matrix(0.296826, 0, 0, 0.207217, 58.0293, 35.8761)">
     <rect stroke="#ff0000" id="svg_57" height="2" width="36.5" y="-53.429709" x="-186.289345"/>
    </g>
    <g id="svg_58" transform="matrix(0.296826, 0, 0, 0.207217, 58.0293, 35.8761)">
     <rect stroke="#ff0000" id="svg_59" height="2" width="36.5" y="-45.429709" x="-186.289345"/>
    </g>
    <g id="svg_60" transform="matrix(0.296826, 0, 0, 0.207217, 58.0293, 35.8761)">
     <rect stroke="#ff0000" id="svg_61" height="2" width="36.5" y="-37.429709" x="-186.289345"/>
    </g>
    <g id="svg_62" transform="matrix(0.296826, 0, 0, 0.207217, 58.0293, 35.8761)">
     <rect stroke="#ff0000" id="svg_63" height="2" width="36.5" y="-29.429709" x="-186.289345"/>
    </g>
   </g>
  </g>
 </g>
</svg>