<?xml version="1.0" encoding="utf-8"?>
<!-- Generator: Adobe Illustrator 17.0.0, SVG Export Plug-In . SVG Version: 6.00 Build 0)  -->
<!DOCTYPE svg PUBLIC "-//W3C//DTD SVG 1.1//EN" "http://www.w3.org/Graphics/SVG/1.1/DTD/svg11.dtd">
<svg version="1.1" id="Layer_1" xmlns="http://www.w3.org/2000/svg" xmlns:xlink="http://www.w3.org/1999/xlink" x="0px" y="0px"
	 width="17px" height="34px" viewBox="0 0 17 34" enable-background="new 0 0 17 34" xml:space="preserve">
<g>
	<g>
		<path id="SVGID_1_" fill="#454545" d="M16.286,15.649l-0.963,0.965c-0.534,0.532-1.396,0.532-1.929,0l-0.811-0.811L10.5,13.72
			l-0.69-0.69c-0.827,0.362-1.716,0.604-2.68,0.604c-3.764,0-6.816-3.05-6.816-6.817C0.314,3.051,3.366,0,7.13,0
			c3.767,0,6.817,3.052,6.817,6.817c0,1.304-0.381,2.509-1.019,3.545l1.184,1.184c0.002,0.004,0.002,0.006,0.007,0.008l1.358,1.357
			l0.809,0.811C16.819,14.252,16.819,15.114,16.286,15.649L16.286,15.649z M7.13,2.726c-2.257,0-4.088,1.831-4.088,4.09
			c0,2.26,1.832,4.091,4.088,4.091c2.261,0,4.09-1.831,4.09-4.091C11.222,4.557,9.392,2.726,7.13,2.726L7.13,2.726z"/>
	</g>
</g>
<g>
	<g>
		<path id="SVGID_3_" fill="#CD352B" d="M16.286,32.636l-0.963,0.965c-0.534,0.532-1.396,0.532-1.929,0l-0.811-0.811L10.5,30.707
			l-0.69-0.69c-0.827,0.362-1.716,0.604-2.68,0.604c-3.764,0-6.816-3.05-6.816-6.817c0-3.766,3.052-6.817,6.816-6.817
			c3.767,0,6.817,3.052,6.817,6.817c0,1.304-0.381,2.509-1.019,3.545l1.184,1.184c0.002,0.004,0.002,0.006,0.007,0.008l1.358,1.357
			l0.809,0.811C16.819,31.239,16.819,32.101,16.286,32.636L16.286,32.636z M7.13,19.713c-2.257,0-4.088,1.831-4.088,4.09
			c0,2.26,1.832,4.091,4.088,4.091c2.261,0,4.09-1.831,4.09-4.091C11.222,21.544,9.392,19.713,7.13,19.713L7.13,19.713z"/>
	</g>
</g>
</svg>
