<?xml version="1.0" encoding="utf-8"?>
<!-- Generator: Adobe Illustrator 17.0.0, SVG Export Plug-In . SVG Version: 6.00 Build 0)  -->
<!DOCTYPE svg PUBLIC "-//W3C//DTD SVG 1.1 Basic//EN" "http://www.w3.org/Graphics/SVG/1.1/DTD/svg11-basic.dtd">
<svg version="1.1" baseProfile="basic" id="Layer_1"
	 xmlns="http://www.w3.org/2000/svg" xmlns:xlink="http://www.w3.org/1999/xlink" x="0px" y="0px" width="17px" height="17px"
	 viewBox="0 0 17 17" xml:space="preserve">
<path fill-rule="evenodd" clip-rule="evenodd" d="M8.5,0C3.806,0,0,3.806,0,8.5S3.806,17,8.5,17S17,13.194,17,8.5S13.194,0,8.5,0z
	 M8.5,3.333c0.76,0,1.475,0.174,2.126,0.47l-6.823,6.823C3.507,9.976,3.333,9.26,3.333,8.5C3.333,5.65,5.65,3.333,8.5,3.333z
	 M8.5,13.667c-0.76,0-1.476-0.174-2.126-0.47l6.824-6.823c0.296,0.65,0.47,1.366,0.47,2.126C13.667,11.35,11.35,13.667,8.5,13.667z"
	/>
</svg>
