<?xml version="1.0" encoding="utf-8"?>
<!-- Generator: Adobe Illustrator 17.0.0, SVG Export Plug-In . SVG Version: 6.00 Build 0)  -->
<!DOCTYPE svg PUBLIC "-//W3C//DTD SVG 1.1//EN" "http://www.w3.org/Graphics/SVG/1.1/DTD/svg11.dtd">
<svg version="1.1" id="Layer_1" xmlns="http://www.w3.org/2000/svg" xmlns:xlink="http://www.w3.org/1999/xlink" x="0px" y="0px"
	 width="39.043px" height="12.315px" viewBox="0 0 39.043 12.315" enable-background="new 0 0 39.043 12.315" xml:space="preserve">
<polygon fill="#FFFFFF" points="3.461,0.033 6.097,0.033 2.637,6.191 6.097,12.315 3.461,12.315 0,6.191 "/>
<polygon fill="#FFFFFF" points="13.623,6.191 10.162,12.315 7.526,12.315 10.986,6.191 7.526,0.033 10.162,0.033 "/>
<polygon fill="#FFFFFF" points="19.073,0 21.709,0 18.249,6.191 21.709,12.315 19.073,12.315 15.612,6.191 "/>
<polygon fill="#FFFFFF" points="24.017,0 26.653,0 23.193,6.191 26.653,12.315 24.017,12.315 20.556,6.191 "/>
<polygon fill="#FFFFFF" points="34.099,6.191 30.638,12.315 28.002,12.315 31.462,6.191 28.002,0.033 30.638,0.033 "/>
<polygon fill="#FFFFFF" points="39.043,6.191 35.582,12.315 32.945,12.315 36.439,6.191 32.945,0.033 35.582,0.033 "/>
</svg>
