<?xml version="1.0" encoding="UTF-8"?>
<svg width="19" height="38" xmlns="http://www.w3.org/2000/svg">
 <!-- Created with SVG-edit - http://svg-edit.googlecode.com/ -->

 <g>
  <title>Layer 1</title>
  <path id="svg_1" d="m770.136963,395.833527c-0.719116,-0.286133 -1.005554,-1.075043 -1.005554,-1.075043s-0.32489,0.177948 -0.32489,-0.32486s0.32489,0.32486 0.649658,-1.612061c0,0 0.897095,-0.251312 0.711792,-2.331543l-0.208801,0c0,0 0.532898,-2.223206 0,-2.977264c-0.541321,-0.753784 -0.758484,-1.256409 -1.941162,-1.616058s-0.750183,-0.286133 -1.616211,-0.251129c-0.858521,0.038605 -1.577515,0.502502 -1.577515,0.753784c0,0 -0.533142,0.034637 -0.750305,0.251465c-0.216309,0.216248 -0.572144,1.217957 -0.572144,1.469147s0.177856,1.937012 0.355835,2.29657l-0.216125,0.073486c-0.178101,2.080231 0.718872,2.331543 0.718872,2.331543c0.325012,1.93692 0.649841,1.109558 0.649841,1.612061s-0.324829,0.32486 -0.324829,0.32486s-0.28656,0.78891 -1.005737,1.075043c-0.719116,0.286102 -4.693176,1.828735 -5.018005,2.149536c-0.325073,0.324829 -0.28656,1.828735 -0.28656,1.828735l17.066711,0c0,0 0.038147,-1.503906 -0.286621,-1.828735c-0.324768,-0.320801 -4.307129,-1.863434 -5.01825,-2.149536zm-7.90271,-0.108582c-0.062256,-0.115784 -0.093323,-0.197205 -0.093323,-0.197205s-0.270752,0.151031 -0.270752,-0.274292s0.270752,0.274292 0.541443,-1.368774c0,0 0.765503,-0.212524 0.611206,-1.975769l-0.185608,0c0,0 0.092712,-0.371338 0.154541,-0.842743c-0.007751,-0.197388 0,-0.402283 0.02301,-0.630402l0.023315,-0.270599c-0.015259,-0.313171 -0.069397,-0.59552 -0.200867,-0.777039c-0.456177,-0.63797 -0.634094,-1.063232 -1.639526,-1.368927c-1.005066,-0.301392 -0.634399,-0.243286 -1.368774,-0.212433c-0.726746,0.030853 -1.337769,0.42511 -1.337769,0.637817c0,0 -0.45636,0.031097 -0.634277,0.212952c-0.177551,0.173828 -0.448303,0.927673 -0.479126,1.194458l0,0.17804c0.023376,0.413513 0.162109,1.55426 0.293762,1.820953l-0.17804,0.061798c-0.154236,1.763123 0.603577,1.975677 0.603577,1.975677c0.278076,1.639282 0.54895,0.939789 0.54895,1.36499s-0.270874,0.274292 -0.270874,0.274292s-0.247437,0.669067 -0.850525,0.91272c-0.038635,0.015289 -0.092834,0.034637 -0.146851,0.057922l0,3.313416l0.363098,0c-0.022827,-0.807983 0.046448,-1.85199 0.471863,-2.273193c0.224304,-0.228271 0.96637,-0.595428 4.021545,-1.81366zm14.142822,-5.73764c-0.022705,-0.239624 -0.077393,-0.452332 -0.185486,-0.599182c-0.448853,-0.63797 -0.633728,-1.063232 -1.639709,-1.368927c-0.997009,-0.301392 -0.634033,-0.243286 -1.368408,-0.212433c-0.726685,0.030853 -1.337891,0.42511 -1.337891,0.637817c0,0 -0.448364,0.031097 -0.633789,0.212952c-0.170349,0.173828 -0.44873,0.935425 -0.479675,1.198273l0.015625,0l0.05365,0.579956c0.015625,0.147003 0.015625,0.274628 0.015625,0.406158c0.062256,0.425232 0.13147,0.858154 0.209106,1.009064l-0.17804,0.061798c-0.154541,1.763123 0.603271,1.975677 0.603271,1.975677c0.278137,1.639282 0.549011,0.939789 0.549011,1.36499s-0.270874,0.274292 -0.270874,0.274292s-0.038391,0.08905 -0.107605,0.212799c3.023438,1.206421 3.757568,1.573608 3.982361,1.798065c0.425171,0.421204 0.48645,1.46521 0.471008,2.277252l0.301819,0l0,-3.363953c-0.007996,-0.003754 -0.022705,-0.007446 -0.030945,-0.011444c-0.610474,-0.243652 -0.850647,-0.91272 -0.850647,-0.91272s-0.278137,0.151031 -0.278137,-0.274292s0.278137,0.274292 0.549011,-1.36499c0,0 0.510254,-0.146881 0.610718,-1.167572l0,-0.777039c0,-0.011475 0,-0.023224 0,-0.031067l-0.185486,0c0,0 0.13916,-0.564392 0.185486,-1.179108l0,-0.746368l0,0z" stroke-width="5" stroke="#000000" fill="#FF0000"/>
  <path id="svg_12" d="m855.805298,397.109009c-0.005676,-0.002258 -0.007935,-0.008484 -0.007935,-0.008484s-0.002563,0.001404 -0.002563,-0.002563s0.002563,0.002563 0.005127,-0.012726c0,0 0.00708,-0.001984 0.005615,-0.018402l-0.001648,0c0,0 0.004211,-0.017548 0,-0.023499c-0.004272,-0.005951 -0.005981,-0.009918 -0.01532,-0.012756s-0.00592,-0.002258 -0.012756,-0.001984c-0.006775,0.000305 -0.012451,0.003967 -0.012451,0.005951c0,0 -0.004211,0.000275 -0.00592,0.001984c-0.001709,0.001709 -0.004517,0.009613 -0.004517,0.011597s0.001404,0.015289 0.002808,0.018127l-0.001709,0.00058c-0.001404,0.016418 0.005676,0.018402 0.005676,0.018402c0.002563,0.015289 0.005127,0.008759 0.005127,0.012726s-0.002563,0.002563 -0.002563,0.002563s-0.002258,0.006226 -0.007935,0.008484c-0.005676,0.002258 -0.037048,0.014435 -0.039612,0.016968c-0.002563,0.002563 -0.002258,0.014435 -0.002258,0.014435l0.134705,0c0,0 0.000305,-0.011871 -0.002258,-0.014435c-0.002563,-0.002533 -0.033997,-0.014709 -0.039612,-0.016968zm-0.062378,-0.000854c-0.000488,-0.000916 -0.000732,-0.001556 -0.000732,-0.001556s-0.002136,0.00119 -0.002136,-0.002167s0.002136,0.002167 0.004272,-0.010803c0,0 0.006042,-0.001678 0.004822,-0.015594l-0.001465,0c0,0 0.000732,-0.00293 0.001221,-0.006653c-0.000061,-0.001556 0,-0.003174 0.000183,-0.004974l0.000183,-0.002136c-0.000122,-0.002472 -0.000549,-0.0047 -0.001587,-0.006134c-0.003601,-0.005035 -0.005005,-0.008392 -0.012939,-0.010803c-0.007935,-0.00238 -0.005005,-0.001923 -0.010803,-0.001678c-0.005737,0.000244 -0.010559,0.003357 -0.010559,0.005035c0,0 -0.003601,0.000244 -0.005005,0.001678c-0.001404,0.001373 -0.00354,0.007324 -0.003784,0.00943l0,0.001404c0.000183,0.003265 0.001282,0.012268 0.002319,0.014374l-0.001404,0.000488c-0.001221,0.013916 0.004761,0.015594 0.004761,0.015594c0.002197,0.012939 0.004333,0.007416 0.004333,0.010773s-0.002136,0.002167 -0.002136,0.002167s-0.001953,0.00528 -0.006714,0.007202c-0.000305,0.000122 -0.000732,0.000275 -0.00116,0.000458l0,0.026154l0.002869,0c-0.000183,-0.006378 0.000366,-0.014618 0.003723,-0.017944c0.00177,-0.001801 0.007629,-0.0047 0.031738,-0.014313zm0.111633,-0.045288c-0.000183,-0.001892 -0.00061,-0.003571 -0.001465,-0.00473c-0.00354,-0.005035 -0.005005,-0.008392 -0.012939,-0.010803c-0.007874,-0.00238 -0.005005,-0.001923 -0.010803,-0.001678c-0.005737,0.000244 -0.010559,0.003357 -0.010559,0.005035c0,0 -0.00354,0.000244 -0.005005,0.001678c-0.001343,0.001373 -0.00354,0.007385 -0.003784,0.00946l0.000122,0l0.000427,0.004578c0.000122,0.00116 0.000122,0.002167 0.000122,0.003204c0.000488,0.003357 0.001038,0.006775 0.001648,0.007965l-0.001404,0.000488c-0.001221,0.013916 0.004761,0.015594 0.004761,0.015594c0.002197,0.012939 0.004333,0.007416 0.004333,0.010773s-0.002136,0.002167 -0.002136,0.002167s-0.000305,0.000702 -0.000854,0.001678c0.023865,0.009521 0.029663,0.012421 0.031433,0.014191c0.003357,0.003326 0.003845,0.011566 0.003723,0.017975l0.00238,0l0,-0.02655c-0.000061,-0.000031 -0.000183,-0.000061 -0.000244,-0.000092c-0.004822,-0.001923 -0.006714,-0.007202 -0.006714,-0.007202s-0.002197,0.00119 -0.002197,-0.002167s0.002197,0.002167 0.004333,-0.010773c0,0 0.004028,-0.00116 0.004822,-0.009216l0,-0.006134c0,-0.000092 0,-0.000183 0,-0.000244l-0.001465,0c0,0 0.001099,-0.004456 0.001465,-0.009308l0,-0.00589l0,0z" stroke-width="5" stroke="#000000" fill="#FF0000"/>
  <g id="svg_18">
   <g id="svg_11">
    <g transform="matrix(0.134362, 0, 0, 0.173642, -3.26927, -9.41446)" id="svg_8">
     <path id="svg_10" d="m62.8209,128.428955c-19.745995,0.413986 -35.768995,13.785995 -37.163996,30.658005l18.693003,0l0.008995,-0.104004c0.900002,-10.901001 6.480003,-21.019012 15.711998,-28.487c0.891006,-0.719009 1.809006,-1.408997 2.75,-2.067001m7.456001,-33.71701c0,-2.40799 0.254997,-4.746994 0.731003,-6.979996c-2.211006,-1.199005 -4.662003,-1.871994 -7.244003,-1.871994c-9.760994,0 -17.672997,9.526001 -17.672997,21.278992c0,11.395004 7.436996,20.695007 16.779999,21.253006c4.201996,-2.928009 8.886002,-5.220001 13.867996,-6.815002c1.054001,-1.365997 1.952011,-2.902008 2.681,-4.567993c-5.559998,-5.180008 -9.142998,-13.248001 -9.142998,-22.297012m48.375008,-0.252991c0,-14.908997 -10.037003,-26.994003 -22.417007,-26.994003c-12.380997,0 -22.416992,12.085007 -22.416992,26.994003c0,13.360001 8.062988,24.457001 18.650986,26.610001c-23.854996,1.585999 -42.86499,18.109985 -44.57399,38.776001l96.679985,0c-1.709991,-20.666016 -20.718987,-37.190002 -44.575981,-38.775009c10.587997,-2.153992 18.653,-13.248001 18.653,-26.610992m27.724983,13.442001c0,-11.753006 -7.912003,-21.279999 -17.673996,-21.279999c-2.583,0 -5.030998,0.675995 -7.242989,1.871994c0.478989,2.233002 0.728989,4.572998 0.728989,6.979996c0,9.050003 -3.582001,17.117004 -9.143997,22.292999c0.725998,1.666 1.626999,3.201996 2.678009,4.571014c4.983994,1.595993 9.666992,3.887985 13.867989,6.812988c9.350998,-0.554993 16.785995,-9.856003 16.785995,-21.248993m20.436005,51.946991c-1.395996,-16.871994 -17.417999,-30.242996 -37.164001,-30.656998c0.940002,0.656998 1.856995,1.345993 2.748993,2.065994c9.230011,7.469009 14.812012,17.585999 15.713013,28.484009l0.008987,0.104004l18.693008,0.002991l0,0z"/>
    </g>
    <g transform="matrix(0.134362, 0, 0, 0.173642, -3.26927, -9.41446)" id="svg_7"/>
   </g>
   <g id="svg_13">
    <g id="svg_14" transform="matrix(0.134363, 0, 0, 0.173642, -3.26926, -9.41445)">
     <path fill="#ff0000" stroke="#ff0000" id="svg_15" d="m60.479218,228.325439c-19.745998,0.414001 -35.768997,13.786011 -37.163998,30.65802l18.693001,0l0.008999,-0.104004c0.900002,-10.901001 6.48,-21.019012 15.711998,-28.487c0.891006,-0.719025 1.809006,-1.408997 2.75,-2.067017m7.456001,-33.71701c0,-2.40799 0.254997,-4.746979 0.731003,-6.97998c-2.211006,-1.199005 -4.662003,-1.872009 -7.244003,-1.872009c-9.760998,0 -17.672997,9.526001 -17.672997,21.278992c0,11.39502 7.436996,20.695007 16.779999,21.253021c4.201996,-2.928009 8.886002,-5.220001 13.867996,-6.815002c1.054001,-1.365997 1.952003,-2.902008 2.681,-4.567993c-5.559998,-5.180023 -9.142998,-13.248016 -9.142998,-22.297028m48.375008,-0.252991c0,-14.908997 -10.037003,-26.993988 -22.417007,-26.993988c-12.380997,0 -22.417,12.084991 -22.417,26.993988c0,13.360016 8.062996,24.457001 18.650993,26.610016c-23.854996,1.585999 -42.86499,18.109985 -44.57399,38.776001l96.679993,0c-1.709991,-20.666016 -20.718994,-37.190002 -44.575989,-38.775024c10.587997,-2.153992 18.653,-13.247986 18.653,-26.610992m27.724991,13.442017c0,-11.753021 -7.912003,-21.279999 -17.673996,-21.279999c-2.583008,0 -5.031006,0.675995 -7.242996,1.871979c0.478989,2.233002 0.728989,4.572998 0.728989,6.980011c0,9.049988 -3.582001,17.117004 -9.143997,22.292999c0.725998,1.665985 1.626999,3.201996 2.678009,4.571014c4.983994,1.595978 9.666992,3.88797 13.867996,6.812988c9.350998,-0.554993 16.785995,-9.856018 16.785995,-21.248993m20.436005,51.946991c-1.395996,-16.872009 -17.417999,-30.243011 -37.164001,-30.657013c0.940002,0.657013 1.856995,1.346008 2.748993,2.06601c9.230011,7.468994 14.812012,17.585999 15.713013,28.484009l0.008987,0.104004l18.693008,0.002991l0,0z"/>
    </g>
    <g id="svg_16" transform="matrix(0.134363, 0, 0, 0.173642, -3.26926, -9.41445)"/>
   </g>
  </g>
 </g>
</svg>