<?xml version="1.0" encoding="utf-8"?>
<!-- Generator: Adobe Illustrator 17.0.0, SVG Export Plug-In . SVG Version: 6.00 Build 0)  -->
<!DOCTYPE svg PUBLIC "-//W3C//DTD SVG 1.1//EN" "http://www.w3.org/Graphics/SVG/1.1/DTD/svg11.dtd">
<svg version="1.1" id="Layer_1" xmlns="http://www.w3.org/2000/svg" xmlns:xlink="http://www.w3.org/1999/xlink" x="0px" y="0px"
	 width="17px" height="16px" viewBox="0 0 17 16" enable-background="new 0 0 17 16" xml:space="preserve">
<rect fill="#FFFFFF" width="17" height="2"/>
<path fill="#FFFFFF" d="M0,3v13h17V3H0z M4,15H1v-3h3V15z M4,11H1V8h3V11z M8,15H5v-3h3V15z M8,11H5V8h3V11z M8,7H5V4h3V7z M12,15H9
	v-3h3V15z M12,11H9V8h3V11z M12,7H9V4h3V7z M16,15h-3v-3h3V15z M16,11h-3V8h3V11z M16,7h-3V4h3V7z"/>
</svg>
